<svg width="600" height="200" viewBox="0 0 600 200" fill="none" xmlns="http://www.w3.org/2000/svg">
<g clip-path="url(#clip0_159_2)">
<rect width="600" height="200" fill="#13120A"/>
<line x1="-25" y1="183.25" x2="625" y2="183.25" stroke="#292821" stroke-width="1.5"/>
<line x1="-38" y1="15.25" x2="612" y2="15.25" stroke="#292821" stroke-width="1.5"/>
<line x1="31.25" y1="225" x2="31.25" y2="-25" stroke="#292821" stroke-width="1.5"/>
<line x1="567.25" y1="233" x2="567.25" y2="-17" stroke="#292821" stroke-width="1.5"/>
<rect x="168.227" y="52.3196" width="166.976" height="60.2968" rx="14.6877" stroke="#EDECEC" stroke-width="4.63822"/>
<path d="M194.187 60.7183C200.226 60.7183 204.031 62.6006 205.601 66.3651C206.044 67.2911 206.265 67.9051 206.265 68.2071H202.461V69.3546H206.537V69.2942C206.537 69.0929 206.446 68.7305 206.265 68.2071H213.241V69.3546H206.628V69.4452C206.97 71.0557 207.211 72.797 207.352 74.6692C207.352 74.7699 204.705 74.9611 199.411 75.2429V75.1825C199.411 70.3712 197.76 67.9655 194.458 67.9655H193.613C191.137 67.9655 189.627 69.0123 189.083 71.106C188.64 72.8775 188.419 75.2027 188.419 78.0814V83.9698L188.359 84.8455H185.611V86.2346H188.359V96.7128H200.015V85.8118H206.688V96.7128H202.974V103.416H195.213V103.99H189.174V103.416H183.044V100.065H187.121V98.6152H181.021V93.663H178.394V87.5632H179.783C179.722 85.0267 179.692 83.0337 179.692 81.5843C179.692 75.0014 180.014 70.8543 180.658 69.1432C181.242 67.1703 182.209 65.4693 183.557 64.04C185.953 61.8255 189.496 60.7183 194.187 60.7183ZM188.932 94.5387H189.295V96.0485H190.17V96.5014H188.932C188.852 96.5014 188.812 96.4511 188.812 96.3505V94.6896C188.812 94.589 188.852 94.5387 188.932 94.5387ZM198.022 94.5387H198.475C198.716 94.74 198.837 94.9312 198.837 95.1124C198.877 95.1124 199.048 94.9211 199.35 94.5387H199.713V94.6896C199.37 95.1325 199.199 95.4446 199.199 95.6257C199.26 95.6257 199.451 95.8874 199.773 96.4109V96.5014H199.35L198.837 95.9277C198.656 96.2699 198.515 96.4612 198.414 96.5014H197.961C198.062 96.3001 198.283 95.9579 198.626 95.4748L198.022 94.599V94.5387ZM204.001 97.1658C204.484 97.2866 204.725 97.4275 204.725 97.5885V97.8905H204.423L204.152 97.5885H203.85C203.749 97.6087 203.699 97.659 203.699 97.7395V97.8905C204.443 98.0314 204.816 98.1925 204.816 98.3736V98.6152C204.816 98.9977 204.594 99.189 204.152 99.189H203.85C203.588 99.189 203.376 99.048 203.215 98.7662V98.4642H203.638C203.638 98.7058 203.779 98.8266 204.061 98.8266H204.152C204.212 98.8266 204.282 98.7561 204.363 98.6152C204.363 98.5548 204.021 98.3837 203.336 98.1019L203.276 97.9509V97.5885C203.276 97.4275 203.517 97.2866 204.001 97.1658ZM210.402 60.8089H225.199C230.151 60.8089 233.352 62.5502 234.801 66.0329C235.425 67.8246 235.737 69.878 235.737 72.1931V74.0049C235.737 78.1922 234.821 81.3829 232.989 83.5772H229.849V85.1777H234.65V95.505H231.812V97.1054H236.1V103.205H227.101V93.4516H223.628V87.1405H217.589V97.8301H218.888V103.99H210.553C210.453 103.99 210.402 103.94 210.402 103.839V86.5063H214.116V85.2683H210.402V60.8089ZM218.888 67.8447V80.0442H220.941C224.021 80.0442 225.803 79.7523 226.286 79.1685C226.789 78.8464 227.182 78.1922 227.463 77.2057H230.664V75.6657H227.765V75.8167C227.604 76.7427 227.484 77.2057 227.403 77.2057H223.266V75.6657H227.614C227.715 75.6657 227.765 75.6254 227.765 75.5449C227.806 74.2968 227.826 73.5922 227.826 73.4311C227.826 70.7336 227.363 69.0828 226.437 68.4789C225.712 68.0561 224.383 67.8447 222.451 67.8447H218.888ZM217.951 87.5028H218.314C218.515 87.6035 218.616 87.7545 218.616 87.9558C218.696 87.9558 218.787 87.8048 218.888 87.5028H219.34V87.5934L218.888 88.2275C218.888 88.2678 219.059 88.5396 219.401 89.0428V89.1032H219.039C218.998 89.1032 218.857 88.9321 218.616 88.5899C218.475 88.912 218.354 89.0831 218.253 89.1032H217.891C218.213 88.6 218.374 88.3081 218.374 88.2275L217.951 87.5028ZM218.012 89.677H219.34V89.9186L218.525 90.915H219.34V91.2774H217.951V91.0056L218.737 89.9789H218.012V89.677ZM239.603 60.6881H248.118C248.118 64.8553 248.843 68.3983 250.292 71.3174C251.862 75.102 252.929 78.1116 253.493 80.3462V80.4066H253.584C254.308 77.7493 255.808 73.6324 258.083 68.0561C258.667 65.3988 258.959 62.9428 258.959 60.6881H266.961C266.478 65.0364 265.874 68.2373 265.149 70.2907L260.348 81.2219H257.419V88.7107H252.98V90.1601H257.419V103.99H249.145C249.044 103.99 248.994 103.94 248.994 103.839V97.0752H247.695V85.0871H250.141V83.9698H247.454C247.232 83.7081 245.561 79.9536 242.441 72.7064C241.132 69.8075 240.478 68.0561 240.478 67.4522H244.041V65.9423H240.176C239.794 62.7415 239.603 60.9901 239.603 60.6881ZM234.439 65.9423H240.176L240.418 67.4522H234.439V65.9423ZM257.781 81.4937H259.11V81.7956L258.294 82.8223H259.11V83.0337C259.11 83.1344 259.059 83.1847 258.959 83.1847H257.872C257.771 83.1847 257.721 83.1344 257.721 83.0337V82.8827L258.536 81.8862H257.781V81.4937ZM257.419 88.7107H260.982V90.1601H257.419V88.7107ZM269.135 60.7787H280.278C286.8 60.7787 290.967 62.4597 292.779 65.8216C293.846 67.9555 294.379 70.6631 294.379 73.9445C294.319 74.5283 294.289 75.1222 294.289 75.7261H300.479V77.8097H294.077V77.7493C294.178 76.5011 294.228 75.8267 294.228 75.7261H290.635V77.8097H294.077V85.1475H286.951V87.684H286.891C281.395 87.7243 278.285 87.7444 277.56 87.7444V91.5492H276.05V98.3132H276.895V103.99H270.131V101.333H269.195V99.0984C269.195 96.5216 269.175 92.3242 269.135 86.5063H273.242V84.302H269.135V60.7787ZM277.56 68.1165V80.4066H280.127V78.625H285.23C285.914 78.0009 286.256 76.2495 286.256 73.3707C286.256 70.6128 285.632 69.0325 284.384 68.6299C283.921 68.2876 282.864 68.1165 281.214 68.1165H277.56ZM294.591 78.2626H294.802C295.044 78.4639 295.165 78.6552 295.165 78.8364L295.648 78.2626H295.95V78.3834C295.567 78.9068 295.376 79.4101 295.376 79.8932H295.165C295.064 79.8932 294.993 79.6114 294.953 79.0477C294.873 79.0477 294.701 78.8062 294.44 78.323L294.591 78.2626ZM294.5 80.4066H295.799V80.7689H295.376V81.9164C295.376 82.0171 295.326 82.0674 295.225 82.0674H295.074C294.993 82.0674 294.953 82.0171 294.953 81.9164V80.7689H294.5V80.4066Z" fill="#EDECEC"/>
<path d="M298.516 60.7183H323.882V67.9353H315.487V97.8603H319.292V98.736H315.487V102.027H313.222V103.175H314.823V103.99H307.122C307.022 103.99 306.971 103.94 306.971 103.839V67.9353H298.516V60.7183ZM312.497 97.8603V98.736H315.427V97.8603H312.497Z" fill="#F54E00"/>
<path d="M339.008 50H355.995L400.927 114.935H384.277L339.008 50ZM384.277 50H400.927L354.545 114.935H337.56L384.277 50Z" fill="#F54E00"/>
<path fill-rule="evenodd" clip-rule="evenodd" d="M381.139 106.288C381.252 106.368 381.028 106.413 381.127 106.484C381.151 106.5 381.154 106.465 381.486 106.534C382.775 106.801 383.381 109.428 380.729 109.428C357.062 109.427 357.076 109.435 356.73 109.407C355.752 109.325 355.175 107.961 355.729 107.16C356.247 106.411 356.926 106.521 356.97 106.49C357.238 106.304 356.932 106.338 356.647 106.191C355.678 105.689 355.321 103.812 355.277 103.581C355.058 102.431 348.885 102.306 347.514 96.4228C347.279 95.4162 347.011 94.2626 350.738 83.9113C351.732 81.1517 356.315 77.9516 356.719 77.7619C356.871 77.6907 360.344 80.7475 358.972 79.2137C352.673 72.172 357.436 61.6909 361.628 57.6579C373.919 45.8336 387.958 68.7541 379.65 78.6296C377.9 80.7086 380.332 78.5809 380.682 78.2416C381.59 77.3613 381.739 77.9599 382.737 78.7191C387.363 82.2378 387.281 83.7131 389.812 91.3067C392.596 99.6619 387.932 100.632 382.94 103.373C382.508 103.611 383.196 105.366 381.139 106.288Z" fill="#EDECEC"/>
<path fill-rule="evenodd" clip-rule="evenodd" d="M359.911 76.0298C366.039 83.9886 369.551 86.5691 376.206 78.5001C377.947 76.3893 378.651 75.3041 378.263 76.2422C375.214 83.6023 372.428 84.2201 371.818 85.4476C371.633 85.8196 376.119 84.7299 380.558 81.548C381.498 80.8747 381.506 80.6972 381.735 80.8721C385.179 83.5107 385.109 84.331 387.816 92.4838C388.505 94.5587 389.73 97.1839 383.55 99.0208C382.919 99.2084 383.216 98.6413 383.867 90.7984C384.229 86.4393 381.661 87.1266 372.685 87.1266C356.191 87.1266 356.054 87.0209 355.115 87.7956C353.366 89.2373 354.649 93.7998 354.89 98.7219C354.939 99.728 350.646 97.5739 350.006 96.3935C349.207 94.9187 349.966 93.4228 352.443 85.9693C352.605 85.4814 353.605 82.4739 356.359 80.8746C356.734 80.6567 359.986 84.027 366.046 85.5796C367.238 85.885 362.682 82.7751 360.581 78.0229C359.806 76.2699 359.844 76.1841 359.911 76.0298Z" fill="#922E00"/>
<path fill-rule="evenodd" clip-rule="evenodd" d="M368.479 56.7649C368.816 56.7779 369.155 56.7503 369.493 56.7634C377.746 57.0812 380.941 71.6382 379.622 70.4417C373.812 65.17 362.573 66.3509 358.469 70.4371C357.967 70.9367 358.558 68.0115 358.745 67.3021C361.241 57.8186 367.343 56.9302 368.479 56.7649Z" fill="#922E00"/>
<path fill-rule="evenodd" clip-rule="evenodd" d="M368.986 71.3223C370.227 71.5622 370.021 71.9816 371.175 72.4982C372.636 73.1523 374.886 73.3706 375.118 73.411C375.749 73.5208 375.77 73.7989 375.069 75.2039C370.117 85.1193 363.393 77.8462 362.441 73.8272C362.312 73.2829 362.695 73.5097 365.032 73.0832C367.361 72.6582 368.062 71.5463 368.986 71.3223Z" fill="#922E00"/>
<path fill-rule="evenodd" clip-rule="evenodd" d="M373.066 69.0391C374.34 69.0439 375.125 69.2105 374.3 70.2063C373.155 71.5869 371.522 70.3331 371.334 70.1886C371.226 70.1056 371.097 69.3982 373.066 69.0391Z" fill="#922E00"/>
<path fill-rule="evenodd" clip-rule="evenodd" d="M364.771 69.0234C364.955 69.0414 366.862 69.2285 366.869 69.9891C366.879 71.0421 363.226 71.0838 363.444 69.4713C363.492 69.1124 363.647 69.2548 364.771 69.0234Z" fill="#922E00"/>
<rect x="166" y="125.324" width="37.7922" height="25" rx="4.54545" fill="#F54E00"/>
<path d="M171.102 143.537C173.027 142.512 174.572 141.57 175.735 140.711C176.913 139.839 177.772 138.98 178.312 138.135C178.852 137.276 179.122 136.368 179.122 135.413C179.122 134.443 178.866 133.674 178.354 133.106C177.841 132.524 177.148 132.233 176.276 132.233C175.694 132.233 175.161 132.365 174.676 132.628C174.205 132.891 173.838 133.251 173.574 133.709C173.311 134.152 173.18 134.651 173.18 135.205L171.081 134.997C171.081 134.138 171.303 133.362 171.746 132.67C172.189 131.977 172.799 131.437 173.574 131.049C174.35 130.647 175.23 130.446 176.213 130.446C177.197 130.446 178.07 130.647 178.832 131.049C179.593 131.451 180.182 132.019 180.598 132.753C181.013 133.473 181.221 134.304 181.221 135.246C181.221 136.368 180.909 137.463 180.286 138.529C179.663 139.596 178.748 140.607 177.543 141.563C176.352 142.505 174.904 143.35 173.2 144.098L172.93 143.537H181.554V145.324H171.102V143.537ZM182.878 142.831H185.434V145.324H182.878V142.831ZM192.147 145.657C190.942 145.657 189.896 145.345 189.01 144.722C188.123 144.098 187.438 143.219 186.953 142.083C186.468 140.933 186.225 139.589 186.225 138.051C186.225 136.514 186.468 135.177 186.953 134.041C187.438 132.891 188.123 132.005 189.01 131.381C189.896 130.758 190.942 130.446 192.147 130.446C193.353 130.446 194.399 130.758 195.285 131.381C196.172 132.005 196.857 132.891 197.342 134.041C197.827 135.177 198.07 136.514 198.07 138.051C198.07 139.589 197.827 140.933 197.342 142.083C196.857 143.219 196.172 144.098 195.285 144.722C194.399 145.345 193.353 145.657 192.147 145.657ZM192.147 143.87C192.923 143.87 193.595 143.634 194.163 143.163C194.745 142.692 195.188 142.02 195.493 141.148C195.798 140.275 195.95 139.243 195.95 138.051C195.95 136.251 195.611 134.831 194.932 133.792C194.253 132.753 193.325 132.233 192.147 132.233C191.372 132.233 190.693 132.469 190.111 132.94C189.543 133.411 189.107 134.083 188.802 134.955C188.497 135.828 188.345 136.86 188.345 138.051C188.345 139.852 188.684 141.272 189.363 142.311C190.042 143.35 190.97 143.87 192.147 143.87Z" fill="#EDECEC"/>
<path d="M208.312 132.013H209.372V136.766H214.826V132.013H215.886V142.922H214.826V137.748H209.372V142.922H208.312V132.013ZM220.172 143.171C219.694 143.171 219.258 143.067 218.863 142.86C218.479 142.652 218.177 142.361 217.959 141.987C217.741 141.613 217.632 141.197 217.632 140.74C217.632 140.002 217.923 139.415 218.505 138.979C219.086 138.543 219.912 138.288 220.983 138.215C221.429 138.184 221.788 138.122 222.058 138.028C222.338 137.924 222.541 137.789 222.666 137.623C222.79 137.457 222.842 137.249 222.821 137C222.79 136.636 222.614 136.356 222.292 136.158C221.98 135.961 221.564 135.862 221.045 135.862C220.39 135.862 219.86 136.018 219.455 136.33C219.05 136.631 218.837 137.041 218.816 137.561L217.834 137.421C217.845 136.932 217.99 136.496 218.271 136.111C218.562 135.727 218.951 135.426 219.44 135.208C219.938 134.989 220.494 134.88 221.107 134.88C221.71 134.88 222.214 134.989 222.619 135.208C223.034 135.415 223.346 135.727 223.554 136.143C223.772 136.558 223.881 137.073 223.881 137.686V142.922H222.868V140.818L223.024 140.117C223.024 140.698 222.899 141.223 222.65 141.691C222.401 142.148 222.058 142.511 221.621 142.782C221.196 143.041 220.712 143.171 220.172 143.171ZM220.375 142.189C220.842 142.189 221.263 142.06 221.637 141.8C222.021 141.54 222.323 141.182 222.541 140.724C222.759 140.267 222.868 139.763 222.868 139.213V138.153L223.102 137.732C223.102 138.137 222.931 138.454 222.588 138.683C222.245 138.911 221.741 139.041 221.076 139.073C220.318 139.114 219.731 139.28 219.315 139.571C218.899 139.852 218.692 140.226 218.692 140.693C218.692 141.13 218.847 141.488 219.159 141.769C219.471 142.049 219.876 142.189 220.375 142.189ZM228.813 143.171C228.117 143.171 227.494 143 226.943 142.657C226.403 142.304 225.982 141.815 225.681 141.192C225.379 140.569 225.229 139.852 225.229 139.041C225.229 138.231 225.374 137.514 225.665 136.891C225.966 136.257 226.387 135.763 226.927 135.41C227.478 135.057 228.101 134.88 228.797 134.88C229.4 134.88 229.946 135.01 230.434 135.27C230.922 135.53 231.317 135.898 231.618 136.376C231.92 136.844 232.101 137.379 232.164 137.982L231.104 138.122C231.042 137.436 230.797 136.891 230.372 136.486C229.946 136.07 229.421 135.862 228.797 135.862C228.299 135.862 227.857 135.997 227.473 136.267C227.099 136.527 226.808 136.901 226.6 137.389C226.392 137.867 226.288 138.418 226.288 139.041C226.288 139.976 226.517 140.735 226.974 141.317C227.431 141.898 228.039 142.189 228.797 142.189C229.431 142.189 229.956 141.992 230.372 141.597C230.797 141.192 231.042 140.662 231.104 140.008L232.164 140.148C232.112 140.74 231.935 141.265 231.634 141.722C231.333 142.179 230.933 142.537 230.434 142.797C229.946 143.047 229.405 143.171 228.813 143.171ZM233.896 139.789L238.353 135.13H239.616L234.301 140.724L233.896 139.789ZM233.584 132.013H234.597V142.922H233.584V132.013ZM236.062 138.402L236.592 137.421L239.849 142.922H238.665L236.062 138.402ZM243.014 143.171C242.536 143.171 242.099 143.067 241.705 142.86C241.32 142.652 241.019 142.361 240.801 141.987C240.582 141.613 240.473 141.197 240.473 140.74C240.473 140.002 240.764 139.415 241.346 138.979C241.928 138.543 242.754 138.288 243.824 138.215C244.271 138.184 244.629 138.122 244.899 138.028C245.18 137.924 245.382 137.789 245.507 137.623C245.632 137.457 245.684 137.249 245.663 137C245.632 136.636 245.455 136.356 245.133 136.158C244.821 135.961 244.406 135.862 243.886 135.862C243.232 135.862 242.702 136.018 242.297 136.33C241.892 136.631 241.679 137.041 241.658 137.561L240.676 137.421C240.686 136.932 240.832 136.496 241.112 136.111C241.403 135.727 241.793 135.426 242.281 135.208C242.78 134.989 243.336 134.88 243.949 134.88C244.551 134.88 245.055 134.989 245.46 135.208C245.876 135.415 246.188 135.727 246.395 136.143C246.614 136.558 246.723 137.073 246.723 137.686V142.922H245.71V140.818L245.866 140.117C245.866 140.698 245.741 141.223 245.492 141.691C245.242 142.148 244.899 142.511 244.463 142.782C244.037 143.041 243.554 143.171 243.014 143.171ZM243.216 142.189C243.684 142.189 244.105 142.06 244.479 141.8C244.863 141.54 245.164 141.182 245.382 140.724C245.601 140.267 245.71 139.763 245.71 139.213V138.153L245.944 137.732C245.944 138.137 245.772 138.454 245.429 138.683C245.086 138.911 244.582 139.041 243.918 139.073C243.159 139.114 242.572 139.28 242.157 139.571C241.741 139.852 241.533 140.226 241.533 140.693C241.533 141.13 241.689 141.488 242.001 141.769C242.312 142.049 242.718 142.189 243.216 142.189ZM251.206 142.922C250.739 142.922 250.349 142.844 250.037 142.688C249.726 142.532 249.492 142.298 249.336 141.987C249.18 141.675 249.102 141.286 249.102 140.818V132.636H250.115V140.927C250.115 141.27 250.199 141.524 250.365 141.691C250.531 141.857 250.786 141.94 251.128 141.94H252.453V142.922H251.206ZM247.419 135.13H252.453V136.111H247.419V135.13ZM258.813 137.873C258.813 137.228 258.668 136.735 258.377 136.392C258.086 136.039 257.67 135.862 257.13 135.862C256.403 135.862 255.816 136.158 255.369 136.75C254.933 137.343 254.715 138.137 254.715 139.135L254.45 137.795C254.45 137.254 254.574 136.766 254.824 136.33C255.073 135.883 255.416 135.53 255.852 135.27C256.289 135.01 256.772 134.88 257.302 134.88C257.811 134.88 258.252 135.005 258.626 135.254C259.011 135.493 259.307 135.841 259.515 136.298C259.722 136.745 259.826 137.27 259.826 137.873V142.922H258.813V137.873ZM253.702 132.013H254.715V142.922H253.702V132.013ZM264.858 143.171C264.152 143.171 263.523 143 262.973 142.657C262.433 142.304 262.012 141.815 261.71 141.192C261.409 140.558 261.258 139.841 261.258 139.041C261.258 138.231 261.409 137.509 261.71 136.875C262.012 136.241 262.433 135.753 262.973 135.41C263.523 135.057 264.152 134.88 264.858 134.88C265.544 134.88 266.162 135.057 266.713 135.41C267.264 135.753 267.69 136.241 267.991 136.875C268.292 137.509 268.443 138.231 268.443 139.041C268.443 139.852 268.292 140.569 267.991 141.192C267.69 141.815 267.264 142.304 266.713 142.657C266.173 143 265.555 143.171 264.858 143.171ZM264.858 142.189C265.357 142.189 265.799 142.06 266.183 141.8C266.568 141.54 266.864 141.171 267.071 140.693C267.29 140.215 267.399 139.665 267.399 139.041C267.399 138.408 267.29 137.852 267.071 137.374C266.864 136.896 266.568 136.527 266.183 136.267C265.799 135.997 265.357 135.862 264.858 135.862C264.349 135.862 263.903 135.997 263.518 136.267C263.144 136.527 262.848 136.896 262.63 137.374C262.422 137.852 262.318 138.408 262.318 139.041C262.318 139.665 262.422 140.215 262.63 140.693C262.838 141.171 263.134 141.54 263.518 141.8C263.903 142.06 264.349 142.189 264.858 142.189ZM275.061 137.873C275.061 137.228 274.915 136.735 274.624 136.392C274.333 136.039 273.918 135.862 273.378 135.862C272.65 135.862 272.063 136.158 271.617 136.75C271.18 137.343 270.962 138.137 270.962 139.135L270.697 137.795C270.697 137.254 270.822 136.766 271.071 136.33C271.32 135.883 271.663 135.53 272.1 135.27C272.536 135.01 273.019 134.88 273.549 134.88C274.058 134.88 274.5 135.005 274.874 135.254C275.258 135.493 275.554 135.841 275.762 136.298C275.97 136.745 276.074 137.27 276.074 137.873V142.922H275.061V137.873ZM269.949 135.13H270.962V142.922H269.949V135.13ZM281.823 130.766H282.805V144.418H281.823V130.766ZM293.237 143.171C292.292 143.171 291.445 142.927 290.697 142.439C289.949 141.95 289.362 141.275 288.936 140.413C288.52 139.54 288.313 138.558 288.313 137.467C288.313 136.366 288.52 135.384 288.936 134.522C289.362 133.66 289.949 132.984 290.697 132.496C291.445 132.008 292.292 131.763 293.237 131.763C294.048 131.763 294.78 131.945 295.435 132.309C296.089 132.673 296.619 133.187 297.024 133.852C297.43 134.517 297.679 135.291 297.772 136.174L296.682 136.33C296.536 135.218 296.152 134.345 295.528 133.711C294.915 133.078 294.146 132.761 293.222 132.761C292.484 132.761 291.819 132.963 291.227 133.369C290.645 133.763 290.188 134.319 289.856 135.036C289.533 135.753 289.372 136.563 289.372 137.467C289.372 138.371 289.539 139.182 289.871 139.898C290.204 140.615 290.661 141.176 291.243 141.582C291.824 141.987 292.484 142.189 293.222 142.189C293.845 142.189 294.406 142.044 294.905 141.753C295.404 141.462 295.809 141.057 296.12 140.537C296.432 140.008 296.624 139.389 296.697 138.683L297.772 138.823C297.679 139.686 297.43 140.444 297.024 141.098C296.619 141.753 296.089 142.262 295.435 142.626C294.78 142.989 294.048 143.171 293.237 143.171ZM301.985 132.995H298.089V132.013H306.941V132.995H303.045V142.922H301.985V132.995ZM308.209 132.013H314.412V132.995H309.269V136.766H313.632V137.748H309.269V142.922H308.209V132.013ZM319.653 130.766H320.635V144.418H319.653V130.766ZM326.641 132.013H329.758C330.766 132.013 331.654 132.241 332.423 132.698C333.202 133.145 333.805 133.784 334.231 134.615C334.657 135.436 334.87 136.387 334.87 137.467C334.87 138.537 334.657 139.488 334.231 140.319C333.805 141.14 333.202 141.779 332.423 142.236C331.654 142.693 330.766 142.922 329.758 142.922H326.641V132.013ZM329.758 141.94C330.558 141.94 331.265 141.753 331.878 141.379C332.491 141.005 332.963 140.48 333.296 139.805C333.639 139.13 333.81 138.35 333.81 137.467C333.81 136.574 333.639 135.795 333.296 135.13C332.963 134.454 332.491 133.93 331.878 133.556C331.265 133.182 330.558 132.995 329.758 132.995H327.701V141.94H329.758ZM339.635 143.171C338.929 143.171 338.305 143 337.765 142.657C337.225 142.304 336.804 141.815 336.503 141.192C336.202 140.558 336.051 139.836 336.051 139.026C336.051 138.215 336.196 137.498 336.487 136.875C336.789 136.241 337.204 135.753 337.734 135.41C338.264 135.057 338.866 134.88 339.542 134.88C340.207 134.88 340.794 135.052 341.303 135.395C341.822 135.737 342.222 136.226 342.503 136.86C342.783 137.493 342.924 138.226 342.924 139.057V139.26H337.111C337.111 139.831 337.215 140.34 337.422 140.787C337.641 141.223 337.937 141.566 338.311 141.815C338.695 142.065 339.131 142.189 339.62 142.189C340.16 142.189 340.622 142.049 341.007 141.769C341.402 141.478 341.661 141.088 341.786 140.6L342.861 140.74C342.685 141.478 342.305 142.07 341.724 142.517C341.142 142.953 340.446 143.171 339.635 143.171ZM341.864 138.356C341.864 137.867 341.765 137.436 341.568 137.062C341.37 136.678 341.095 136.382 340.742 136.174C340.389 135.966 339.978 135.862 339.511 135.862C339.043 135.862 338.628 135.971 338.264 136.189C337.9 136.397 337.615 136.688 337.407 137.062C337.209 137.436 337.111 137.867 337.111 138.356H341.864ZM347.211 143.171C346.598 143.171 346.043 143.062 345.544 142.844C345.056 142.626 344.661 142.309 344.359 141.893C344.058 141.478 343.887 140.984 343.845 140.413L344.827 140.273C344.879 140.667 345.014 141.01 345.232 141.301C345.461 141.592 345.746 141.815 346.089 141.971C346.443 142.117 346.827 142.189 347.243 142.189C347.783 142.189 348.245 142.065 348.63 141.815C349.024 141.566 349.222 141.223 349.222 140.787C349.222 140.486 349.123 140.241 348.926 140.054C348.739 139.867 348.5 139.722 348.209 139.618C347.918 139.514 347.518 139.4 347.009 139.275C346.417 139.13 345.939 138.984 345.575 138.839C345.211 138.693 344.9 138.48 344.64 138.2C344.38 137.919 344.25 137.545 344.25 137.078C344.25 136.6 344.385 136.195 344.656 135.862C344.936 135.53 345.295 135.286 345.731 135.13C346.167 134.963 346.645 134.88 347.165 134.88C347.653 134.88 348.105 134.958 348.52 135.114C348.936 135.26 349.269 135.493 349.518 135.815C349.778 136.127 349.923 136.511 349.954 136.969L348.972 137.109C348.941 136.693 348.754 136.382 348.411 136.174C348.069 135.966 347.643 135.862 347.133 135.862C346.624 135.862 346.193 135.961 345.84 136.158C345.487 136.356 345.31 136.641 345.31 137.015C345.31 137.286 345.398 137.509 345.575 137.686C345.762 137.852 345.996 137.982 346.276 138.075C346.557 138.169 346.936 138.278 347.414 138.402C348.027 138.558 348.526 138.714 348.91 138.87C349.295 139.015 349.617 139.239 349.876 139.54C350.146 139.841 350.282 140.236 350.282 140.724C350.282 141.202 350.152 141.628 349.892 142.002C349.632 142.366 349.269 142.652 348.801 142.86C348.333 143.067 347.804 143.171 347.211 143.171ZM351.64 135.13H352.653V142.922H351.64V135.13ZM351.5 132.496H352.809V133.805H351.5V132.496ZM357.543 146.288C356.961 146.288 356.432 146.189 355.954 145.992C355.486 145.795 355.107 145.514 354.816 145.15C354.535 144.797 354.369 144.392 354.317 143.935L355.393 143.795C355.465 144.241 355.699 144.605 356.094 144.886C356.489 145.166 356.977 145.306 357.559 145.306C358.317 145.306 358.93 145.067 359.398 144.589C359.865 144.111 360.099 143.483 360.099 142.704V135.13H361.112V142.704C361.112 143.41 360.961 144.034 360.66 144.574C360.369 145.114 359.948 145.535 359.398 145.836C358.858 146.137 358.239 146.288 357.543 146.288ZM357.387 143.171C356.733 143.171 356.151 143 355.642 142.657C355.143 142.304 354.754 141.815 354.473 141.192C354.203 140.558 354.068 139.836 354.068 139.026C354.068 138.215 354.208 137.498 354.489 136.875C354.769 136.241 355.159 135.753 355.658 135.41C356.167 135.057 356.743 134.88 357.387 134.88C357.938 134.88 358.426 135.005 358.852 135.254C359.289 135.493 359.626 135.836 359.865 136.283C360.115 136.719 360.239 137.218 360.239 137.779V140.273C360.239 140.823 360.115 141.322 359.865 141.769C359.626 142.205 359.289 142.548 358.852 142.797C358.416 143.047 357.928 143.171 357.387 143.171ZM357.606 142.189C358.094 142.189 358.525 142.06 358.899 141.8C359.273 141.53 359.564 141.156 359.772 140.678C359.98 140.2 360.084 139.649 360.084 139.026C360.084 138.402 359.98 137.852 359.772 137.374C359.564 136.886 359.273 136.511 358.899 136.252C358.525 135.992 358.094 135.862 357.606 135.862C357.117 135.862 356.686 135.992 356.312 136.252C355.938 136.511 355.647 136.886 355.439 137.374C355.232 137.852 355.128 138.402 355.128 139.026C355.128 139.649 355.232 140.2 355.439 140.678C355.647 141.156 355.938 141.53 356.312 141.8C356.686 142.06 357.117 142.189 357.606 142.189ZM368.281 137.873C368.281 137.228 368.136 136.735 367.845 136.392C367.554 136.039 367.138 135.862 366.598 135.862C365.871 135.862 365.284 136.158 364.837 136.75C364.401 137.343 364.182 138.137 364.182 139.135L363.917 137.795C363.917 137.254 364.042 136.766 364.291 136.33C364.541 135.883 364.884 135.53 365.32 135.27C365.756 135.01 366.24 134.88 366.769 134.88C367.278 134.88 367.72 135.005 368.094 135.254C368.478 135.493 368.775 135.841 368.982 136.298C369.19 136.745 369.294 137.27 369.294 137.873V142.922H368.281V137.873ZM363.169 135.13H364.182V142.922H363.169V135.13ZM373.344 143.171C372.866 143.171 372.43 143.067 372.035 142.86C371.651 142.652 371.35 142.361 371.131 141.987C370.913 141.613 370.804 141.197 370.804 140.74C370.804 140.002 371.095 139.415 371.677 138.979C372.259 138.543 373.085 138.288 374.155 138.215C374.602 138.184 374.96 138.122 375.23 138.028C375.511 137.924 375.713 137.789 375.838 137.623C375.963 137.457 376.015 137.249 375.994 137C375.963 136.636 375.786 136.356 375.464 136.158C375.152 135.961 374.737 135.862 374.217 135.862C373.563 135.862 373.033 136.018 372.628 136.33C372.222 136.631 372.009 137.041 371.989 137.561L371.007 137.421C371.017 136.932 371.163 136.496 371.443 136.111C371.734 135.727 372.124 135.426 372.612 135.208C373.111 134.989 373.666 134.88 374.279 134.88C374.882 134.88 375.386 134.989 375.791 135.208C376.207 135.415 376.518 135.727 376.726 136.143C376.944 136.558 377.054 137.073 377.054 137.686V142.922H376.041V140.818L376.196 140.117C376.196 140.698 376.072 141.223 375.822 141.691C375.573 142.148 375.23 142.511 374.794 142.782C374.368 143.041 373.885 143.171 373.344 143.171ZM373.547 142.189C374.015 142.189 374.435 142.06 374.809 141.8C375.194 141.54 375.495 141.182 375.713 140.724C375.931 140.267 376.041 139.763 376.041 139.213V138.153L376.274 137.732C376.274 138.137 376.103 138.454 375.76 138.683C375.417 138.911 374.913 139.041 374.248 139.073C373.49 139.114 372.903 139.28 372.487 139.571C372.072 139.852 371.864 140.226 371.864 140.693C371.864 141.13 372.02 141.488 372.331 141.769C372.643 142.049 373.048 142.189 373.547 142.189ZM381.537 142.922C381.07 142.922 380.68 142.844 380.368 142.688C380.057 142.532 379.823 142.298 379.667 141.987C379.511 141.675 379.433 141.286 379.433 140.818V132.636H380.446V140.927C380.446 141.27 380.529 141.524 380.696 141.691C380.862 141.857 381.116 141.94 381.459 141.94H382.784V142.922H381.537ZM377.75 135.13H382.784V136.111H377.75V135.13ZM389.144 137.873C389.144 137.228 388.999 136.735 388.708 136.392C388.417 136.039 388.001 135.862 387.461 135.862C386.734 135.862 386.147 136.158 385.7 136.75C385.264 137.343 385.045 138.137 385.045 139.135L384.78 137.795C384.78 137.254 384.905 136.766 385.154 136.33C385.404 135.883 385.747 135.53 386.183 135.27C386.619 135.01 387.103 134.88 387.632 134.88C388.141 134.88 388.583 135.005 388.957 135.254C389.341 135.493 389.638 135.841 389.845 136.298C390.053 136.745 390.157 137.27 390.157 137.873V142.922H389.144V137.873ZM384.032 132.013H385.045V142.922H384.032V132.013ZM395.189 143.171C394.483 143.171 393.854 143 393.304 142.657C392.763 142.304 392.343 141.815 392.041 141.192C391.74 140.558 391.589 139.841 391.589 139.041C391.589 138.231 391.74 137.509 392.041 136.875C392.343 136.241 392.763 135.753 393.304 135.41C393.854 135.057 394.483 134.88 395.189 134.88C395.875 134.88 396.493 135.057 397.044 135.41C397.594 135.753 398.02 136.241 398.322 136.875C398.623 137.509 398.774 138.231 398.774 139.041C398.774 139.852 398.623 140.569 398.322 141.192C398.02 141.815 397.594 142.304 397.044 142.657C396.504 143 395.885 143.171 395.189 143.171ZM395.189 142.189C395.688 142.189 396.13 142.06 396.514 141.8C396.898 141.54 397.194 141.171 397.402 140.693C397.62 140.215 397.73 139.665 397.73 139.041C397.73 138.408 397.62 137.852 397.402 137.374C397.194 136.896 396.898 136.527 396.514 136.267C396.13 135.997 395.688 135.862 395.189 135.862C394.68 135.862 394.233 135.997 393.849 136.267C393.475 136.527 393.179 136.896 392.961 137.374C392.753 137.852 392.649 138.408 392.649 139.041C392.649 139.665 392.753 140.215 392.961 140.693C393.168 141.171 393.465 141.54 393.849 141.8C394.233 142.06 394.68 142.189 395.189 142.189ZM405.391 137.873C405.391 137.228 405.246 136.735 404.955 136.392C404.664 136.039 404.249 135.862 403.708 135.862C402.981 135.862 402.394 136.158 401.947 136.75C401.511 137.343 401.293 138.137 401.293 139.135L401.028 137.795C401.028 137.254 401.152 136.766 401.402 136.33C401.651 135.883 401.994 135.53 402.43 135.27C402.867 135.01 403.35 134.88 403.88 134.88C404.389 134.88 404.83 135.005 405.204 135.254C405.589 135.493 405.885 135.841 406.093 136.298C406.301 136.745 406.404 137.27 406.404 137.873V142.922H405.391V137.873ZM400.28 135.13H401.293V142.922H400.28V135.13Z" fill="white"/>
<line x1="568" y1="10" x2="568" y2="22" stroke="#F54E00" stroke-width="2"/>
<line x1="562" y1="16" x2="574" y2="16" stroke="#F54E00" stroke-width="2"/>
<line x1="568" y1="178" x2="568" y2="190" stroke="#F54E00" stroke-width="2"/>
<line x1="562" y1="184" x2="574" y2="184" stroke="#F54E00" stroke-width="2"/>
<line x1="32" y1="10" x2="32" y2="22" stroke="#F54E00" stroke-width="2"/>
<line x1="26" y1="16" x2="38" y2="16" stroke="#F54E00" stroke-width="2"/>
<line x1="32" y1="178" x2="32" y2="190" stroke="#F54E00" stroke-width="2"/>
<line x1="26" y1="184" x2="38" y2="184" stroke="#F54E00" stroke-width="2"/>
</g>
<defs>
<clipPath id="clip0_159_2">
<rect width="600" height="200" fill="white"/>
</clipPath>
</defs>
</svg>
