<svg width="893" height="245" viewBox="0 0 893 245" fill="none" xmlns="http://www.w3.org/2000/svg">
<rect x="8.75" y="8.75" width="630" height="227.5" rx="55.4167" stroke="white" stroke-width="17.5"/>
<path d="M106.697 39.203C129.483 39.203 143.839 46.3048 149.763 60.5083C151.434 64.0023 152.27 66.3189 152.27 67.4582H137.914V71.7876H153.295V71.5598C153.295 70.8002 152.953 69.433 152.27 67.4582H178.588V71.7876H153.637V72.1294C154.928 78.2058 155.84 84.7759 156.371 91.8397C156.371 92.2195 146.383 92.9411 126.407 94.0044V93.7766C126.407 75.6234 120.179 66.5468 107.722 66.5468H104.532C95.1898 66.5468 89.4932 70.4964 87.4424 78.3957C85.7714 85.0797 84.9359 93.8525 84.9359 104.714V126.931L84.708 130.235H74.3402V135.476H84.708V175.01H128.686V133.881H153.865V175.01H139.851V200.303H110.571V202.468H87.7842V200.303H64.6559V187.657H80.0368V182.188H57.0225V163.503H47.1104V140.489H52.3512C52.1234 130.919 52.0094 123.399 52.0094 117.93C52.0094 93.093 53.2247 77.4463 55.6553 70.9901C57.858 63.5465 61.5038 57.1284 66.5928 51.7356C75.6314 43.3805 88.9995 39.203 106.697 39.203ZM86.8727 166.807H88.2399V172.504H91.5439V174.213H86.8727C86.5689 174.213 86.417 174.023 86.417 173.643V167.377C86.417 166.997 86.5689 166.807 86.8727 166.807ZM121.166 166.807H122.875C123.787 167.567 124.243 168.288 124.243 168.972C124.394 168.972 125.04 168.25 126.179 166.807H127.547V167.377C126.255 169.048 125.61 170.225 125.61 170.909C125.838 170.909 126.559 171.896 127.774 173.871V174.213H126.179L124.243 172.048C123.559 173.339 123.027 174.061 122.647 174.213H120.938C121.318 173.453 122.154 172.162 123.445 170.339L121.166 167.035V166.807ZM143.725 176.719C145.548 177.175 146.459 177.707 146.459 178.314V179.454H145.32L144.295 178.314H143.155C142.776 178.39 142.586 178.58 142.586 178.884V179.454C145.396 179.985 146.801 180.593 146.801 181.277V182.188C146.801 183.631 145.966 184.353 144.295 184.353H143.155C142.168 184.353 141.37 183.821 140.763 182.758V181.618H142.358C142.358 182.53 142.889 182.986 143.953 182.986H144.295C144.522 182.986 144.788 182.72 145.092 182.188C145.092 181.96 143.801 181.315 141.218 180.251L140.991 179.682V178.314C140.991 177.707 141.902 177.175 143.725 176.719ZM167.879 39.5448H223.705C242.39 39.5448 254.467 46.1149 259.936 59.2551C262.29 66.0151 263.468 73.7625 263.468 82.4973V89.3332C263.468 105.132 260.012 117.171 253.1 125.45H241.251V131.488H259.366V170.453H248.657V176.491H264.835V199.506H230.883V162.706H217.781V138.894H194.994V179.226H199.894V202.468H168.448C168.068 202.468 167.879 202.278 167.879 201.898V136.501H181.892V131.83H167.879V39.5448ZM199.894 66.091V112.12H207.641C219.262 112.12 225.984 111.018 227.807 108.816C229.706 107.6 231.187 105.132 232.25 101.41H244.327V95.5995H233.39V96.1692C232.782 99.6631 232.326 101.41 232.022 101.41H216.414V95.5995H232.82C233.2 95.5995 233.39 95.4476 233.39 95.1438C233.542 90.4346 233.618 87.7761 233.618 87.1685C233.618 76.9906 231.871 70.7623 228.377 68.4836C225.642 66.8886 220.629 66.091 213.338 66.091H199.894ZM196.362 140.261H197.729C198.488 140.641 198.868 141.21 198.868 141.97C199.172 141.97 199.514 141.4 199.894 140.261H201.603V140.603L199.894 142.995C199.894 143.147 200.539 144.173 201.83 146.072V146.299H200.463C200.311 146.299 199.78 145.654 198.868 144.363C198.336 145.578 197.881 146.223 197.501 146.299H196.134C197.349 144.4 197.957 143.299 197.957 142.995L196.362 140.261ZM196.59 148.464H201.603V149.376L198.526 153.135H201.603V154.502H196.362V153.477L199.324 149.603H196.59V148.464ZM278.051 39.0891H310.18C310.18 54.8117 312.914 68.1798 318.383 79.1932C324.308 93.4728 328.333 104.828 330.46 113.259V113.487H330.802C333.536 103.461 339.195 87.9281 347.778 66.8886C349.98 56.8625 351.082 47.596 351.082 39.0891H381.274C379.451 55.4953 377.172 67.5721 374.438 75.3195L356.323 116.563H345.271V144.818H328.523V150.287H345.271V202.468H314.054C313.674 202.468 313.484 202.278 313.484 201.898V176.377H308.585V131.146H317.813V126.931H307.674C306.838 125.943 300.534 111.778 288.761 84.4341C283.824 73.4966 281.355 66.8886 281.355 64.6099H294.799V58.9133H280.216C278.773 46.8365 278.051 40.2284 278.051 39.0891ZM258.569 58.9133H280.216L281.127 64.6099H258.569V58.9133ZM346.638 117.588H351.651V118.728L348.575 122.601H351.651V123.399C351.651 123.779 351.462 123.969 351.082 123.969H346.98C346.6 123.969 346.411 123.779 346.411 123.399V122.829L349.487 119.07H346.638V117.588ZM345.271 144.818H358.715V150.287H345.271V144.818ZM389.477 39.4309H431.518C456.127 39.4309 471.85 45.7731 478.686 58.4576C482.711 66.5088 484.724 76.7247 484.724 89.1054C484.496 91.308 484.383 93.5487 484.383 95.8274H507.739V103.689H483.585V103.461C483.965 98.7516 484.155 96.2071 484.155 95.8274H470.597V103.689H483.585V131.374H456.697V140.945H456.469C435.733 141.096 423.998 141.172 421.264 141.172V155.528H415.567V181.049H418.757V202.468H393.237V192.442H389.705V184.011C389.705 174.289 389.629 158.452 389.477 136.501H404.972V128.184H389.477V39.4309ZM421.264 67.1164V113.487H430.948V106.765H450.203C452.785 104.41 454.077 97.8022 454.077 86.9406C454.077 76.5348 451.722 70.5724 447.013 69.0533C445.266 67.762 441.278 67.1164 435.05 67.1164H421.264ZM485.522 105.398H486.319C487.231 106.157 487.687 106.879 487.687 107.562L489.509 105.398H490.649V105.853C489.206 107.828 488.484 109.727 488.484 111.55H487.687C487.307 111.55 487.041 110.487 486.889 108.36C486.585 108.36 485.94 107.448 484.952 105.626L485.522 105.398ZM485.18 113.487H490.079V114.854H488.484V119.183C488.484 119.563 488.294 119.753 487.914 119.753H487.345C487.041 119.753 486.889 119.563 486.889 119.183V114.854H485.18V113.487Z" fill="white"/>
<path d="M500.333 39.203H596.036V66.4328H564.363V179.34H578.718V182.644H564.363V195.062H555.818V199.392H561.856V202.468H532.804C532.424 202.468 532.234 202.278 532.234 201.898V66.4328H500.333V39.203ZM553.084 179.34V182.644H564.135V179.34H553.084Z" fill="#F54E00"/>
<path d="M653.106 0H717.198L886.729 245H823.906L653.106 0ZM823.906 0H886.729L711.729 245H647.643L823.906 0Z" fill="#F54E00"/>
<path fill-rule="evenodd" clip-rule="evenodd" d="M812.07 212.372C812.496 212.673 811.65 212.844 812.023 213.108C812.113 213.172 812.126 213.039 813.379 213.299C818.239 214.307 820.527 224.219 810.522 224.218C721.225 224.214 721.277 224.246 719.972 224.137C716.283 223.83 714.107 218.682 716.194 215.662C718.15 212.834 720.711 213.249 720.878 213.133C721.888 212.431 720.733 212.561 719.66 212.005C716.002 210.11 714.656 203.03 714.49 202.157C713.665 197.819 690.372 197.346 685.2 175.149C684.315 171.351 683.301 166.999 697.365 127.944C701.115 117.531 718.406 105.457 719.932 104.742C720.505 104.473 733.608 116.007 728.432 110.219C704.666 83.6511 722.635 44.106 738.453 28.8893C784.826 -15.7236 837.795 70.7554 806.448 108.016C799.849 115.86 809.024 107.832 810.345 106.552C813.77 103.23 814.331 105.489 818.097 108.353C835.55 121.629 835.243 127.195 844.789 155.846C855.293 187.371 837.699 191.029 818.863 201.373C817.232 202.269 819.827 208.893 812.07 212.372Z" fill="white"/>
<path fill-rule="evenodd" clip-rule="evenodd" d="M731.978 98.2038C755.099 128.232 768.347 137.969 793.457 107.524C800.026 99.5599 802.684 95.4656 801.218 99.005C789.717 126.775 779.203 129.105 776.901 133.737C776.203 135.141 793.129 131.029 809.879 119.024C813.424 116.483 813.455 115.814 814.317 116.474C827.315 126.429 827.051 129.524 837.263 160.285C839.862 168.113 844.485 178.018 821.168 184.949C818.787 185.656 819.908 183.517 822.364 153.926C823.729 137.479 814.038 140.072 780.175 140.072C717.941 140.072 717.426 139.673 713.88 142.596C707.281 148.035 712.122 165.25 713.033 183.821C713.219 187.617 697.021 179.49 694.606 175.036C691.589 169.471 694.453 163.827 703.799 135.705C704.411 133.865 708.183 122.517 718.575 116.483C719.991 115.661 732.258 128.377 755.123 134.235C759.621 135.387 742.43 123.654 734.506 105.724C731.582 99.1095 731.723 98.7858 731.978 98.2038Z" fill="#922E00"/>
<path fill-rule="evenodd" clip-rule="evenodd" d="M764.3 25.5222C765.574 25.5713 766.852 25.4673 768.126 25.5164C799.266 26.7154 811.32 81.639 806.345 77.1247C784.423 57.2346 742.019 61.6902 726.534 77.1073C724.641 78.9924 726.87 67.9557 727.574 65.2792C736.992 29.498 760.016 26.146 764.3 25.5222Z" fill="#922E00"/>
<path fill-rule="evenodd" clip-rule="evenodd" d="M766.215 80.4453C770.897 81.3505 770.119 82.933 774.473 84.8821C779.985 87.3501 788.475 88.1738 789.348 88.3261C791.73 88.7404 791.812 89.7896 789.165 95.0906C770.482 132.502 745.112 105.06 741.52 89.8965C741.033 87.8429 742.48 88.6984 751.294 87.0894C760.081 85.4857 762.729 81.2907 766.215 80.4453Z" fill="#922E00"/>
<path fill-rule="evenodd" clip-rule="evenodd" d="M781.605 71.832C786.413 71.8503 789.376 72.479 786.261 76.2361C781.942 81.4451 775.782 76.7144 775.073 76.1691C774.665 75.856 774.179 73.1871 781.605 71.832Z" fill="#922E00"/>
<path fill-rule="evenodd" clip-rule="evenodd" d="M750.313 71.7722C751.007 71.8401 758.203 72.5459 758.23 75.4156C758.267 79.3885 744.484 79.546 745.306 73.4621C745.489 72.108 746.074 72.6451 750.313 71.7722Z" fill="#922E00"/>
</svg>
